<svg xmlns="http://www.w3.org/2000/svg" width="147.5" height="35.235" viewBox="0 0 147.5 35.235">
  <g id="그룹_179" data-name="그룹 179" transform="translate(-320 -4371.898)">
    <g id="그룹_6" data-name="그룹 6" transform="translate(1374.864 3996.135)">
      <path id="패스_9" data-name="패스 9" d="M-1038.416,490.418l-16.448-6.535v-.566h0v2.352a2.2,2.2,0,0,0,1.283,1.891l15.168,6.034a4.013,4.013,0,0,0,2.566,0l15.168-6.034a2.2,2.2,0,0,0,1.283-1.891v-1.786l-16.448,6.535A4.094,4.094,0,0,1-1038.416,490.418Z" transform="translate(0 -82.806)" fill="#bdbebf"/>
      <path id="패스_10" data-name="패스 10" d="M-1035.844,423.211a4.1,4.1,0,0,1-2.572,0l-16.448-6.535v14.106h0v1.794l16.448,6.535a4.094,4.094,0,0,0,2.572,0l16.448-6.535v-15.9Z" transform="translate(0 -31.499)" fill="#fff"/>
      <path id="패스_11" data-name="패스 11" d="M-1020.683,381.893l-15.162-5.923a4.093,4.093,0,0,0-2.572,0l-15.162,5.923a2.184,2.184,0,0,0-1.286,1.883v1.274h0v.127l16.448,6.535a4.1,4.1,0,0,0,2.572,0l16.448-6.535v-1.4A2.184,2.184,0,0,0-1020.683,381.893Z" fill="#bdbebf"/>
    </g>
    <text id="CUSTAD" transform="translate(416.5 4398)" fill="#bdbebf" font-size="24" font-family="JalnanOTF, Jalnan OTF"><tspan x="-50.112" y="0">CUSTAD</tspan></text>
  </g>
</svg>
