<svg xmlns="http://www.w3.org/2000/svg" width="147.854" height="35.587" viewBox="0 0 147.854 35.587">
  <g id="그룹_180" data-name="그룹 180" transform="translate(-320.646 -37.983)">
    <text id="CUSTAD" transform="translate(417.5 65)" fill="#525252" font-size="24" font-family="JalnanOTF, Jalnan OTF"><tspan x="-50.112" y="0">CUSTAD</tspan></text>
    <g id="그룹_3" data-name="그룹 3" transform="translate(1174.958 -337.781)">
      <path id="패스_4" data-name="패스 4" d="M-818.491,483.792a2.223,2.223,0,0,1-1.3,1.91l-15.319,6.094a4.053,4.053,0,0,1-2.591,0l-15.319-6.094a2.223,2.223,0,0,1-1.3-1.91v-2.375c0-.767,35.821-.767,35.821,0Z" transform="translate(0 -80.659)" fill="#ffa600"/>
      <path id="패스_5" data-name="패스 5" d="M-836.4,382.143l-17.911,7v15.275h0v1.812l16.612,6.6a4.134,4.134,0,0,0,2.6,0l16.612-6.6V389.139Z" transform="translate(0 -4.897)" fill="#ffd174"/>
      <path id="패스_6" data-name="패스 6" d="M-819.79,381.954l-15.313-5.982a4.134,4.134,0,0,0-2.6,0l-15.313,5.982a2.206,2.206,0,0,0-1.3,1.9v1.286h0v.129l16.612,6.6a4.137,4.137,0,0,0,2.6,0l16.612-6.6v-1.415A2.206,2.206,0,0,0-819.79,381.954Z" fill="#ffa600"/>
    </g>
  </g>
</svg>
